<mxfile host="app.diagrams.net" modified="2024-06-23T16:19:28.788Z" agent="Mozilla/5.0 (Macintosh; Intel Mac OS X 10_15_7) AppleWebKit/605.1.15 (KHTML, like Gecko) Version/17.5 Safari/605.1.15" etag="21tzvBhUb9wxBAYKvChh" version="24.6.2" type="github">
  <diagram name="Page-1" id="822b0af5-4adb-64df-f703-e8dfc1f81529">
    <mxGraphModel dx="2390" dy="1182" grid="1" gridSize="10" guides="1" tooltips="1" connect="1" arrows="1" fold="1" page="1" pageScale="1" pageWidth="1100" pageHeight="850" background="none" math="0" shadow="0">
      <root>
        <mxCell id="0" />
        <mxCell id="1" parent="0" />
        <mxCell id="7d933b09d9755ecc-24" style="edgeStyle=none;rounded=0;html=1;exitX=0.5;exitY=1;labelBackgroundColor=none;startArrow=none;startFill=0;endArrow=block;endFill=1;strokeColor=#0000FF;strokeWidth=1;fontFamily=Verdana;fontSize=12;fontColor=#000000;" parent="1" edge="1">
          <mxGeometry relative="1" as="geometry">
            <mxPoint x="1088.9999999999995" y="579.9999999999998" as="sourcePoint" />
            <mxPoint x="1088.8050314465404" y="611" as="targetPoint" />
          </mxGeometry>
        </mxCell>
        <mxCell id="7d933b09d9755ecc-36" value="" style="ellipse;whiteSpace=wrap;html=1;rounded=0;shadow=0;comic=0;strokeWidth=1;fontFamily=Verdana;" parent="1" vertex="1">
          <mxGeometry x="1478" y="694" width="142" height="96" as="geometry" />
        </mxCell>
        <mxCell id="7d933b09d9755ecc-37" value="Users" style="verticalLabelPosition=bottom;aspect=fixed;html=1;verticalAlign=top;strokeColor=none;shape=mxgraph.citrix.users;rounded=0;shadow=0;comic=0;fontFamily=Verdana;" parent="1" vertex="1">
          <mxGeometry x="1516" y="707" width="64.5" height="55" as="geometry" />
        </mxCell>
        <mxCell id="2-sOZN1NLR4EMqEl9yD2-1" value="" style="image;html=1;image=img/lib/clip_art/networking/Wireless_Router_128x128.png" vertex="1" parent="1">
          <mxGeometry x="150" y="50" width="100" height="100" as="geometry" />
        </mxCell>
        <mxCell id="2-sOZN1NLR4EMqEl9yD2-2" value="" style="verticalLabelPosition=bottom;aspect=fixed;html=1;shape=mxgraph.salesforce.stream;" vertex="1" parent="1">
          <mxGeometry x="460" y="80" width="81" height="81" as="geometry" />
        </mxCell>
        <mxCell id="2-sOZN1NLR4EMqEl9yD2-3" value="" style="verticalLabelPosition=bottom;html=1;verticalAlign=top;align=center;strokeColor=none;fillColor=#00BEF2;shape=mxgraph.azure.computer;pointerEvents=1;" vertex="1" parent="1">
          <mxGeometry x="740" y="79" width="100" height="80" as="geometry" />
        </mxCell>
        <mxCell id="2-sOZN1NLR4EMqEl9yD2-4" value="" style="sketch=0;aspect=fixed;pointerEvents=1;shadow=0;dashed=0;html=1;strokeColor=none;labelPosition=center;verticalLabelPosition=bottom;verticalAlign=top;align=center;fillColor=#00188D;shape=mxgraph.azure.computer" vertex="1" parent="1">
          <mxGeometry x="930" y="79" width="90" height="81" as="geometry" />
        </mxCell>
        <mxCell id="2-sOZN1NLR4EMqEl9yD2-5" value="" style="verticalLabelPosition=bottom;html=1;verticalAlign=top;align=center;strokeColor=none;fillColor=#00BEF2;shape=mxgraph.azure.computer;pointerEvents=1;" vertex="1" parent="1">
          <mxGeometry x="1250" y="70" width="100" height="80" as="geometry" />
        </mxCell>
        <mxCell id="2-sOZN1NLR4EMqEl9yD2-7" value="" style="sketch=0;aspect=fixed;pointerEvents=1;shadow=0;dashed=0;html=1;strokeColor=none;labelPosition=center;verticalLabelPosition=bottom;verticalAlign=top;align=center;fillColor=#00188D;shape=mxgraph.azure.computer" vertex="1" parent="1">
          <mxGeometry x="1478" y="78" width="90" height="81" as="geometry" />
        </mxCell>
        <mxCell id="2-sOZN1NLR4EMqEl9yD2-8" value="" style="sketch=0;aspect=fixed;pointerEvents=1;shadow=0;dashed=0;html=1;strokeColor=none;labelPosition=center;verticalLabelPosition=bottom;verticalAlign=top;align=center;fillColor=#00188D;shape=mxgraph.azure.computer" vertex="1" parent="1">
          <mxGeometry x="1340" y="420" width="90" height="81" as="geometry" />
        </mxCell>
        <mxCell id="2-sOZN1NLR4EMqEl9yD2-9" value="" style="group" vertex="1" connectable="0" parent="1">
          <mxGeometry x="570" y="701" width="160" height="109" as="geometry" />
        </mxCell>
        <mxCell id="7d933b09d9755ecc-32" value="" style="ellipse;whiteSpace=wrap;html=1;rounded=0;shadow=0;comic=0;strokeWidth=1;fontFamily=Verdana;container=1;" parent="2-sOZN1NLR4EMqEl9yD2-9" vertex="1">
          <mxGeometry width="160" height="109.00000000000001" as="geometry" />
        </mxCell>
        <mxCell id="7d933b09d9755ecc-33" value="Users" style="verticalLabelPosition=bottom;aspect=fixed;html=1;verticalAlign=top;strokeColor=none;shape=mxgraph.citrix.users;rounded=0;shadow=0;comic=0;fontFamily=Verdana;container=1;" parent="2-sOZN1NLR4EMqEl9yD2-9" vertex="1">
          <mxGeometry x="50.42253521126761" y="20.820224719101127" width="72.67605633802818" height="61.971830985915496" as="geometry" />
        </mxCell>
      </root>
    </mxGraphModel>
  </diagram>
</mxfile>
